<svg xmlns="http://www.w3.org/2000/svg" width="682.67" height="682.67" version="1.0" viewBox="0 0 512 512">
  <path fill="#eaa224" d="M221.7 83.42c-2.21.45-39.6 16.76-82.99 36.39-56.96 25.81-79.95 36.57-82.72 38.9-7.48 6.36-11.35 16.76-9.88 26.08.65 3.32 12 27.87 37.85 81.83 33.52 69.64 37.49 77.44 41.36 81.3 7.11 7.08 18.2 10.21 27.52 7.97 2.4-.54 11.54-4.3 20.4-8.33 12.78-17.24 99.87-200.14 98.5-210.9-.21-1.7-18.1-38.63-20.58-41.95-6.56-8.7-18.75-13.35-29.45-11.3zm2.13 37.2c5.9 1.97 13.57 8.96 16.34 14.87 2.86 6.55 2.86 15.5 0 22.05-2.77 5.92-10.43 12.9-16.34 14.88-5.63 1.8-13.57 1.8-19.2 0-5.91-1.97-13.57-8.96-16.34-14.88a25.6 25.6 0 0 1-2.13-11.02c0-8.43 2.68-14.34 9.23-20.08 2.77-2.42 6.74-5.02 8.87-5.74 5.26-1.79 14.12-1.88 19.57-.09zm-99.24 48.3a28.83 28.83 0 0 1 12.27 12.37c3.05 5.47 3.05 18.2 0 23.67-3.04 5.64-6.83 9.5-12.37 12.45-4.43 2.33-5.72 2.6-13.2 2.6-9.05 0-12.92-1.34-19.2-6.63-7.11-6.1-10.71-18.28-8.13-27.6 2.22-8.07 10.71-16.59 18.93-19.1 1.57-.44 6-.71 9.79-.53 5.63.18 7.94.71 11.9 2.77zm46.43 99.31c17.45 7.8 21.97 29.31 9.05 43.03-6 6.45-12 9.05-20.77 9.05-8.68 0-14.77-2.6-20.68-8.96-20.68-21.96 4.7-55.66 32.4-43.12z"/>
  <path fill="#83502e" d="M294.23 151.4c-6 2.1-11.2 5.9-14.8 10.6-3.3 4.4-79.2 170.5-81.1 177.6-3.2 11.9 2 26.1 12.1 33 5 3.4 166.4 77.4 175 80.2 7.5 2.5 15.4 1.9 23-1.7 10.9-5.2 10.2-4 53.5-98.6l39.5-86.4v-9c0-7.9-.4-9.7-2.8-14.2-5.2-9.9-8.1-11.8-42.5-27.6-145.4-66.5-142-65-149.6-65.4-5.1-.3-8.5.2-12.3 1.5zm37.5 41.2c7.3 3.1 14.7 11.4 16.8 18.8 5.8 20-8.5 39.5-29.1 39.5-9.5 0-16-2.9-22.4-9.9-6.4-7-8.5-13.1-7.9-22.8.6-8.2 3-13.8 8.6-19.4 9-9 22.1-11.3 34-6.2zm28.5 80.6c5.5 1.9 12.8 8.1 16.2 13.7 6.9 11.8 4.1 28.6-6.2 37.7-15.5 13.6-38.6 9.2-47.9-9.2-8.3-16.3-.1-36.1 17.5-42.4 5-1.8 14.8-1.7 20.4.2zm32.3 82.3c13.7 6.1 21.2 22 17 36.4-7.9 27.3-45.5 29.8-57.4 3.9-5.7-12.5-1.6-28.5 9.5-36.9 8.5-6.5 20.8-7.8 30.9-3.4z"/>
</svg>
